<svg height="512pt" viewBox="0 0 512 512" width="512pt" xmlns="http://www.w3.org/2000/svg"><path d="m436 0h-360c-41.398438 0-76 33.601562-76 75v362c0 41.398438 34.601562 75 76 75h360c41.398438 0 76-33.601562 76-75v-362c0-41.398438-34.601562-75-76-75zm0 0" fill="#ffda2d"/><path d="m512 75v362c0 41.398438-34.601562 75-76 75h-179.898438v-512h179.898438c41.398438 0 76 33.601562 76 75zm0 0" fill="#fdbf00"/><path d="m412.300781 314c-24.601562-11.101562-41.101562-20.101562-42.601562-39.300781 2.402343-1.5 6.902343-3 9.902343-4.5 12.296876-4.800781 33.296876-13.199219 33.296876-34.800781 0-15.296876-13.199219-26.097657-31.5-26.097657-5.398438 0-13.796876 2.097657-19.199219 3.300781.300781-6.601562.601562-17 .601562-28.101562 0-78.390625-56.992187-107.839844-106.699219-109.480469-.132812-.007812-.273437-.019531-.402343-.019531-49.199219 1.199219-106.5 30.601562-106.5 109.5 0 11.101562.300781 21.5.601562 28.101562-5.402343-1.203124-13.800781-3.300781-19.199219-3.300781-18.300781 0-31.5 10.800781-31.5 26.097657 0 21.601562 21 30 33.296876 34.800781 3 1.5 7.5 3 9.902343 4.5-1.5 19.199219-18 28.199219-42.601562 39.300781-18.898438 8.398438-38.699219 17.398438-38.699219 37.800781 0 21.300781 18.898438 24.597657 34.199219 27.300781 5.101562.898438 11.101562 1.796876 18 3.296876 2.101562 10.203124 6.601562 24.601562 24.601562 24.601562 6 0 18.300781-3.300781 27.300781-3.300781 14.699219 0 23.398438 6 34.199219 13.5 12.898438 8.699219 29.097657 19.800781 56.398438 19.800781h.402343c27.539063-.03125 43.71875-11.109375 56.597657-19.800781 10.800781-7.5 19.5-13.5 34.199219-13.5 9 0 21.300781 3.300781 27.300781 3.300781 18 0 22.5-14.398438 24.601562-24.601562 6.898438-1.5 12.898438-2.398438 18-3.296876 15.300781-2.703124 34.199219-6 34.199219-27.300781 0-20.402343-19.800781-29.402343-38.699219-37.800781zm0 0" fill="#edf5ff"/><path d="m451 351.800781c0 21.300781-18.898438 24.597657-34.199219 27.300781-5.101562.898438-11.101562 1.796876-18 3.296876-2.101562 10.203124-6.601562 24.601562-24.601562 24.601562-6 0-18.300781-3.300781-27.300781-3.300781-14.699219 0-23.398438 6-34.199219 13.5-12.878907 8.691406-29.058594 19.769531-56.597657 19.800781v-361.980469c49.707032 1.640625 106.699219 31.089844 106.699219 109.480469 0 11.101562-.300781 21.5-.601562 28.101562 5.402343-1.203124 13.800781-3.300781 19.199219-3.300781 18.300781 0 31.5 10.800781 31.5 26.097657 0 21.601562-21 30-33.296876 34.800781-3 1.5-7.5 3-9.902343 4.5 1.5 19.199219 18 28.199219 42.601562 39.300781 18.898438 8.398438 38.699219 17.398438 38.699219 37.800781zm0 0" fill="#d7e9ff"/></svg>